# xmcd CD database file
#
# Track frame offsets:
#	150
#	17057
#	33739
#	54860
#	69721
#	87551
#	105854
#	122354
#	141626
#	156699
#	171512
#	193469
#	206273
#
# Disc length: 3247 seconds
#
# Revision: 0
# Processed by: cddbd v1.5.1PL0 Copyright (c) Steve Scherf et al.
# Submitted via: CDex 1.51
#
DISCID=c10cad0d
DTITLE=Brian Nova Quartett - blue and bossa nova
DYEAR=2001
DGENRE=Jazz
TTITLE0=Just Friends
TTITLE1=So Danco Samba
TTITLE2=Bluesology
TTITLE3=I'll Remember You
TTITLE4=At Long Last Love
TTITLE5=Gee Baby Ain't I Good To You
TTITLE6=O Pato
TTITLE7=I'll Remember April
TTITLE8=Sabor A Mi'
TTITLE9=Long Ago And Far Away
TTITLE10=Estate
TTITLE11=Don't Let It Go To Your Head
TTITLE12=Wave
EXTD=YEAR: 2001
EXTT0=
EXTT1=
EXTT2=
EXTT3=
EXTT4=
EXTT5=
EXTT6=
EXTT7=
EXTT8=
EXTT9=
EXTT10=
EXTT11=
EXTT12=
PLAYORDER=
